<?xml version="1.0" standalone="no"?><!DOCTYPE svg PUBLIC "-//W3C//DTD SVG 1.1//EN" "http://www.w3.org/Graphics/SVG/1.1/DTD/svg11.dtd"><svg t="1754464209546" class="icon" viewBox="0 0 1024 1024" version="1.1" xmlns="http://www.w3.org/2000/svg" p-id="7351" xmlns:xlink="http://www.w3.org/1999/xlink" width="24" height="24"><path d="M130.368 469.312A384.384 384.384 0 0 1 398.08 145.152a721.28 721.28 0 0 0-98.24 324.16h-169.6zM468.992 44.608a469.376 469.376 0 0 0 0 934.784l0.32 0.448 18.176 0.896a488.192 488.192 0 0 0 49.024 0l18.176-0.896 0.32-0.448a469.376 469.376 0 0 0 0-934.784L554.688 44.224 536.448 43.328a475.776 475.776 0 0 0-48.896 0L469.312 44.16l-0.32 0.384zM512.064 128a636.544 636.544 0 0 1 126.528 341.312H385.408A636.544 636.544 0 0 1 511.936 128H512zM299.904 554.688c6.848 117.76 41.792 228.032 98.24 324.16a384.384 384.384 0 0 1-267.776-324.16h169.536zM511.936 896a636.544 636.544 0 0 1-126.528-341.312h253.184A636.544 636.544 0 0 1 512.064 896h-0.128z m113.92-17.152a721.28 721.28 0 0 0 98.24-324.16h169.6a384.384 384.384 0 0 1-267.84 324.16z m98.24-409.536A721.28 721.28 0 0 0 625.92 145.152a384.384 384.384 0 0 1 267.776 324.16h-169.536z" p-id="7352"></path></svg>